<?xml version="1.0" encoding="UTF-8" standalone="no"?>
<!-- Created with Inkscape (http://www.inkscape.org/) -->

<svg
   width="44.918182mm"
   height="4.3454189mm"
   viewBox="0 0 44.918182 4.3454189"
   version="1.1"
   id="svg1"
   xmlns:inkscape="http://www.inkscape.org/namespaces/inkscape"
   xmlns:sodipodi="http://sodipodi.sourceforge.net/DTD/sodipodi-0.dtd"
   xmlns="http://www.w3.org/2000/svg"
   xmlns:svg="http://www.w3.org/2000/svg">
  <sodipodi:namedview
     id="namedview1"
     pagecolor="#ffffff"
     bordercolor="#000000"
     borderopacity="0.25"
     inkscape:showpageshadow="2"
     inkscape:pageopacity="0.0"
     inkscape:pagecheckerboard="0"
     inkscape:deskcolor="#d1d1d1"
     inkscape:document-units="mm" />
  <defs
     id="defs1" />
  <g
     inkscape:label="Capa 1"
     inkscape:groupmode="layer"
     id="layer1"
     transform="translate(-28.896723,-42.156337)">
    <path
       style="font-size:3.52777px;font-family:Monospace;-inkscape-font-specification:Monospace;stroke:#000000;stroke-width:0.8;stroke-linejoin:round;stroke-miterlimit:10;stroke-opacity:0;paint-order:markers fill stroke"
       d="m 29.296685,45.237446 0.716138,-0.966609 -0.68086,-0.924276 h 0.356305 l 0.507999,0.709082 0.507999,-0.709082 h 0.356304 l -0.684387,0.924276 0.716137,0.966609 h -0.356305 l -0.539748,-0.751415 -0.543277,0.751415 z m 2.942155,0.03528 q -0.176388,0 -0.338666,-0.03175 -0.15875,-0.03175 -0.275166,-0.08819 v -0.292805 q 0.123472,0.05644 0.271638,0.105834 0.151694,0.04586 0.359833,0.04586 0.232833,0 0.328082,-0.07056 0.09878,-0.07408 0.09878,-0.211666 0,-0.07408 -0.03528,-0.119944 -0.03175,-0.04939 -0.126999,-0.09878 -0.09525,-0.04939 -0.278694,-0.127 -0.183444,-0.08114 -0.313972,-0.151694 -0.130527,-0.07055 -0.201083,-0.165805 -0.07055,-0.09878 -0.07055,-0.250471 0,-0.250472 0.1905,-0.377472 0.194027,-0.127 0.536221,-0.127 0.155221,0 0.296332,0.02822 0.141111,0.02822 0.292805,0.09172 l -0.09525,0.246943 q -0.14111,-0.05997 -0.261055,-0.08114 -0.116416,-0.02117 -0.232832,-0.02117 -0.218722,0 -0.321027,0.05644 -0.09878,0.05645 -0.09878,0.176389 0,0.07761 0.04233,0.130527 0.04586,0.05292 0.144639,0.102306 0.102305,0.04939 0.26811,0.119944 0.186972,0.07761 0.3175,0.144639 0.130527,0.06703 0.197555,0.162277 0.06703,0.09172 0.06703,0.253999 0,0.268111 -0.194027,0.409222 -0.1905,0.141111 -0.567971,0.141111 z m 2.00024,0 q -0.278694,0 -0.451554,-0.137583 -0.169333,-0.137584 -0.169333,-0.416277 0,-0.306916 0.218721,-0.45861 0.22225,-0.151695 0.638527,-0.162278 l 0.405693,-0.01058 v -0.07761 q 0,-0.254 -0.126999,-0.345722 -0.127,-0.09525 -0.342194,-0.09525 -0.151694,0 -0.289277,0.03881 -0.137583,0.03881 -0.261055,0.109361 l -0.109361,-0.239888 q 0.134055,-0.06703 0.296333,-0.116417 0.165805,-0.04939 0.380999,-0.04939 0.356305,0 0.546804,0.162278 0.194027,0.158749 0.194027,0.497415 v 1.26647 H 34.916412 L 34.881132,44.9764 h -0.01411 q -0.116416,0.148166 -0.26811,0.222249 -0.151694,0.07408 -0.359833,0.07408 z M 34.292,45.015198 q 0.158749,0 0.292805,-0.05644 0.134055,-0.05997 0.215194,-0.176389 0.08114,-0.119944 0.08114,-0.29986 V 44.31317 l -0.338666,0.01058 q -0.338666,0.01058 -0.483304,0.109361 -0.141111,0.09878 -0.141111,0.275166 0,0.162278 0.102305,0.236361 0.102306,0.07056 0.271639,0.07056 z m 1.47813,0.22225 V 45.02578 l 0.691443,-0.05292 v -2.15194 l -0.670276,-0.04586 v -0.218721 h 0.987775 v 2.416522 l 0.613832,0.05292 v 0.211666 z m 2.702266,0.03528 q -0.278694,0 -0.451554,-0.137583 -0.169333,-0.137584 -0.169333,-0.416277 0,-0.306916 0.218721,-0.45861 0.22225,-0.151695 0.638527,-0.162278 L 39.11445,44.0874 v -0.07761 q 0,-0.254 -0.126999,-0.345722 -0.127,-0.09525 -0.342194,-0.09525 -0.151694,0 -0.289277,0.03881 -0.137583,0.03881 -0.261055,0.109361 l -0.109361,-0.239888 q 0.134055,-0.06703 0.296333,-0.116417 0.165805,-0.04939 0.380999,-0.04939 0.356305,0 0.546804,0.162278 0.194028,0.158749 0.194028,0.497415 v 1.26647 h -0.254 l -0.03528,-0.261055 h -0.01411 q -0.116416,0.148166 -0.26811,0.222249 -0.151694,0.07408 -0.359833,0.07408 z m 0.05292,-0.257528 q 0.158749,0 0.292805,-0.05644 0.134055,-0.05997 0.215194,-0.176389 0.08114,-0.119944 0.08114,-0.29986 V 44.31317 l -0.338666,0.01058 q -0.338665,0.01058 -0.483304,0.109361 -0.141111,0.09878 -0.141111,0.275166 0,0.162278 0.102305,0.236361 0.102306,0.07056 0.271639,0.07056 z m 2.169573,1.086553 q -0.194028,0 -0.366888,-0.0388 -0.169333,-0.03528 -0.313972,-0.09525 v -0.282221 q 0.141111,0.08114 0.324555,0.119944 0.186972,0.04233 0.345721,0.04233 0.321027,0 0.448027,-0.151694 0.127,-0.148166 0.127,-0.409221 v -0.06703 q 0,-0.04233 0,-0.08114 0.0035,-0.03881 0.01058,-0.119944 h -0.01411 q -0.09878,0.144639 -0.232833,0.201083 -0.130527,0.05292 -0.317499,0.05292 -0.373944,0 -0.582082,-0.254 -0.208139,-0.257527 -0.208139,-0.716137 0,-0.462138 0.204611,-0.726721 0.208139,-0.264583 0.567971,-0.264583 0.1905,0 0.321027,0.0635 0.130528,0.05997 0.232833,0.204611 h 0.01764 l 0.04233,-0.232833 h 0.254 v 1.940274 q 0,0.405693 -0.208139,0.610304 -0.208138,0.20461 -0.652637,0.20461 z m 0.07056,-1.086553 q 0.236361,0 0.370416,-0.151694 0.134055,-0.155222 0.134055,-0.493888 v -0.07408 q 0,-0.388054 -0.137583,-0.557387 -0.137583,-0.169333 -0.377471,-0.169333 -0.268111,0 -0.391583,0.190499 -0.123472,0.186972 -0.123472,0.532693 0,0.352777 0.127,0.539749 0.130528,0.183444 0.398638,0.183444 z m 1.940269,0.257528 q -0.278694,0 -0.451555,-0.137583 -0.169333,-0.137584 -0.169333,-0.416277 0,-0.306916 0.218722,-0.45861 0.22225,-0.151695 0.638526,-0.162278 l 0.405694,-0.01058 v -0.07761 q 0,-0.254 -0.127,-0.345722 -0.126999,-0.09525 -0.342193,-0.09525 -0.151695,0 -0.289278,0.03881 -0.137583,0.03881 -0.261055,0.109361 l -0.10936,-0.239888 q 0.134055,-0.06703 0.296332,-0.116417 0.165805,-0.04939 0.380999,-0.04939 0.356305,0 0.546805,0.162278 0.194027,0.158749 0.194027,0.497415 v 1.26647 H 43.38305 l -0.03528,-0.261055 h -0.01411 q -0.116417,0.148166 -0.268111,0.222249 -0.151694,0.07408 -0.359832,0.07408 z m 0.05292,-0.257528 q 0.15875,0 0.292805,-0.05644 0.134056,-0.05997 0.215194,-0.176389 0.08114,-0.119944 0.08114,-0.29986 V 44.31317 l -0.338666,0.01058 q -0.338666,0.01058 -0.483304,0.109361 -0.141111,0.09878 -0.141111,0.275166 0,0.162278 0.102305,0.236361 0.102305,0.07056 0.271638,0.07056 z m 1.41463,0.22225 v -0.21167 l 0.575027,-0.05292 v -1.361719 l -0.518582,-0.04586 v -0.218722 h 0.772581 l 0.04233,0.345722 h 0.01411 q 0.09878,-0.186972 0.215194,-0.282222 0.119944,-0.09878 0.313971,-0.09878 0.119944,0 0.211666,0.02117 0.09525,0.02117 0.172861,0.05644 l -0.08467,0.278694 q -0.05644,-0.03175 -0.134056,-0.05292 -0.07761,-0.0247 -0.165805,-0.0247 -0.151694,0 -0.26811,0.09525 -0.116417,0.09525 -0.183444,0.253999 -0.06703,0.15875 -0.06703,0.34925 v 0.684387 l 0.550332,0.05292 v 0.211666 z m 3.090321,0.03528 q -0.416277,0 -0.656165,-0.225778 -0.236361,-0.229305 -0.236361,-0.740831 0,-0.363361 0.116417,-0.582083 0.119944,-0.218721 0.328082,-0.313971 0.211667,-0.09878 0.479777,-0.09878 0.165805,0 0.299861,0.03528 0.137583,0.03175 0.257527,0.09525 l -0.09525,0.257527 q -0.112889,-0.05997 -0.218722,-0.08467 -0.105833,-0.02822 -0.229305,-0.02822 -0.324555,0 -0.469193,0.179917 -0.144639,0.176388 -0.144639,0.532693 0,0.377471 0.151694,0.539749 0.151694,0.162277 0.451555,0.162277 0.155222,0 0.292805,-0.03175 0.137583,-0.03528 0.239888,-0.08114 v 0.278693 q -0.105833,0.04939 -0.261055,0.07761 -0.155222,0.02822 -0.306916,0.02822 z m 2.007297,-2.268357 q -0.09172,0 -0.15875,-0.05644 -0.0635,-0.05644 -0.0635,-0.165805 0,-0.116417 0.0635,-0.169333 0.06703,-0.05644 0.15875,-0.05644 0.09172,0 0.155222,0.05644 0.06703,0.05292 0.06703,0.169333 0,0.109361 -0.06703,0.165805 -0.0635,0.05644 -0.155222,0.05644 z m -0.800804,2.233079 V 45.02578 l 0.673804,-0.05292 v -1.361719 l -0.61736,-0.04586 v -0.218722 h 0.934859 v 1.626302 l 0.631471,0.05292 v 0.211666 z m 2.702265,0.03528 q -0.278694,0 -0.451555,-0.137583 -0.169333,-0.137584 -0.169333,-0.416277 0,-0.306916 0.218722,-0.45861 0.22225,-0.151695 0.638527,-0.162278 l 0.405693,-0.01058 v -0.07761 q 0,-0.254 -0.127,-0.345722 -0.126999,-0.09525 -0.342193,-0.09525 -0.151694,0 -0.289277,0.03881 -0.137583,0.03881 -0.261055,0.109361 L 50.6855,43.477089 q 0.134055,-0.06703 0.296332,-0.116417 0.165806,-0.04939 0.381,-0.04939 0.356304,0 0.546804,0.162278 0.194027,0.158749 0.194027,0.497415 v 1.26647 h -0.253999 l -0.03528,-0.261055 h -0.01411 q -0.116416,0.148166 -0.26811,0.222249 -0.151695,0.07408 -0.359833,0.07408 z m 0.05292,-0.257528 q 0.158749,0 0.292804,-0.05644 0.134056,-0.05997 0.215194,-0.176389 0.08114,-0.119944 0.08114,-0.29986 V 44.31317 l -0.338666,0.01058 q -0.338666,0.01058 -0.483304,0.109361 -0.141111,0.09878 -0.141111,0.275166 0,0.162278 0.102305,0.236361 0.102306,0.07056 0.271639,0.07056 z m 2.338906,0.536221 q -0.352777,0 -0.596193,-0.165805 -0.243416,-0.165805 -0.370416,-0.469193 -0.123472,-0.306916 -0.123472,-0.716138 0,-0.433915 0.123472,-0.765526 0.123472,-0.335138 0.359833,-0.525637 0.239888,-0.1905 0.589137,-0.1905 0.28575,0 0.493888,0.151694 0.211666,0.151694 0.328083,0.433916 0.116416,0.282221 0.116416,0.673804 0,0.162277 -0.02469,0.317499 -0.02117,0.155222 -0.07055,0.282222 -0.04586,0.127 -0.127,0.20461 -0.07761,0.07408 -0.194028,0.07408 -0.119944,0 -0.186971,-0.09525 -0.06703,-0.09525 -0.08467,-0.215194 h -0.0071 q -0.04939,0.130527 -0.148167,0.222249 -0.09878,0.0882 -0.246944,0.0882 -0.215194,0 -0.33161,-0.183444 -0.116416,-0.183444 -0.116416,-0.479777 0,-0.232833 0.07408,-0.409221 0.07408,-0.179917 0.208138,-0.278694 0.137583,-0.102306 0.324555,-0.102306 0.127,0 0.250472,0.02822 0.123472,0.02469 0.190499,0.05292 l -0.03881,0.716137 q -0.0035,0.02822 -0.0035,0.06703 0,0.03528 0,0.0635 0,0.183444 0.03881,0.243416 0.0388,0.05997 0.08467,0.05997 0.0635,0 0.102305,-0.08819 0.03881,-0.09172 0.05292,-0.239888 0.01764,-0.151695 0.01764,-0.331611 0,-0.49036 -0.197555,-0.754943 -0.194028,-0.26811 -0.507999,-0.26811 -0.268111,0 -0.455083,0.155222 -0.183444,0.155222 -0.278693,0.433915 -0.09172,0.275167 -0.09172,0.64911 0,0.52211 0.215193,0.825498 0.215194,0.299861 0.642055,0.299861 0.176388,0 0.324554,-0.03881 0.148167,-0.03881 0.271639,-0.09525 v 0.229305 q -0.127,0.0635 -0.271639,0.102305 -0.144638,0.03881 -0.335138,0.03881 z m -0.123472,-0.91722 q 0.130528,0 0.183444,-0.148166 0.05292,-0.151694 0.06703,-0.388055 l 0.02469,-0.437443 q -0.03528,-0.01411 -0.08114,-0.0247 -0.04586,-0.01058 -0.09525,-0.01058 -0.116416,0 -0.186972,0.08467 -0.06703,0.08467 -0.09878,0.215194 -0.03175,0.130528 -0.03175,0.275166 0,0.229305 0.05997,0.331611 0.05997,0.102305 0.158749,0.102305 z m 2.070797,1.467552 q -0.194028,0 -0.366888,-0.0388 -0.169333,-0.03528 -0.313972,-0.09525 v -0.282221 q 0.141111,0.08114 0.324555,0.119944 0.186972,0.04233 0.345721,0.04233 0.321027,0 0.448027,-0.151694 0.127,-0.148166 0.127,-0.409221 v -0.06703 q 0,-0.04233 0,-0.08114 0.0035,-0.03881 0.01058,-0.119944 h -0.01411 q -0.09878,0.144639 -0.232833,0.201083 -0.130527,0.05292 -0.317499,0.05292 -0.373944,0 -0.582082,-0.254 -0.208139,-0.257527 -0.208139,-0.716137 0,-0.462138 0.204611,-0.726721 0.208139,-0.264583 0.567971,-0.264583 0.1905,0 0.321027,0.0635 0.130528,0.05997 0.232833,0.204611 h 0.01764 l 0.04233,-0.232833 h 0.254 v 1.940274 q 0,0.405693 -0.208139,0.610304 -0.208138,0.20461 -0.652637,0.20461 z m 0.07055,-1.086553 q 0.236361,0 0.370416,-0.151694 0.134055,-0.155222 0.134055,-0.493888 v -0.07408 q 0,-0.388054 -0.137583,-0.557387 -0.137583,-0.169333 -0.377471,-0.169333 -0.268111,0 -0.391583,0.190499 -0.123472,0.186972 -0.123472,0.532693 0,0.352777 0.127,0.539749 0.130528,0.183444 0.398638,0.183444 z m 1.248824,0.22225 v -1.890885 h 0.218722 l 0.04586,0.208139 h 0.01764 q 0.07055,-0.141111 0.155221,-0.1905 0.08467,-0.05292 0.194028,-0.05292 0.144638,0 0.222249,0.07056 0.08114,0.06703 0.123472,0.201083 h 0.01058 q 0.05997,-0.130528 0.148166,-0.201083 0.09172,-0.07056 0.239888,-0.07056 0.218722,0 0.303388,0.169333 0.08819,0.165806 0.08819,0.52211 v 1.23472 H 58.31605 v -1.181803 q 0,-0.22225 -0.03175,-0.345722 -0.02822,-0.123472 -0.158749,-0.123472 -0.268111,0 -0.268111,0.705554 v 0.945443 h -0.282222 v -1.181803 q 0,-0.225777 -0.04233,-0.345722 -0.03881,-0.123472 -0.169333,-0.123472 -0.141111,0 -0.197555,0.1905 -0.05292,0.1905 -0.05292,0.515054 v 0.945443 z m 2.8081,0.03528 q -0.278694,0 -0.451554,-0.137583 -0.169333,-0.137584 -0.169333,-0.416277 0,-0.306916 0.218721,-0.45861 0.22225,-0.151695 0.638527,-0.162278 l 0.405693,-0.01058 v -0.07761 q 0,-0.254 -0.126999,-0.345722 -0.127,-0.09525 -0.342194,-0.09525 -0.151694,0 -0.289277,0.03881 -0.137583,0.03881 -0.261055,0.109361 L 59.15214,43.477107 q 0.134055,-0.06703 0.296333,-0.116417 0.165805,-0.04939 0.380999,-0.04939 0.356304,0 0.546804,0.162278 0.194027,0.158749 0.194027,0.497415 v 1.26647 h -0.253999 l -0.03528,-0.261055 h -0.01411 q -0.116416,0.148166 -0.26811,0.222249 -0.151694,0.07408 -0.359833,0.07408 z m 0.05292,-0.257528 q 0.158749,0 0.292805,-0.05644 0.134055,-0.05997 0.215194,-0.176389 0.08114,-0.119944 0.08114,-0.29986 V 44.31317 l -0.338666,0.01058 q -0.338666,0.01058 -0.483304,0.109361 -0.141111,0.09878 -0.141111,0.275166 0,0.162278 0.102305,0.236361 0.102306,0.07056 0.271639,0.07056 z m 2.278932,-2.010829 q -0.09172,0 -0.158749,-0.05644 -0.0635,-0.05644 -0.0635,-0.165805 0,-0.116417 0.0635,-0.169333 0.06703,-0.05644 0.158749,-0.05644 0.09172,0 0.155222,0.05644 0.06703,0.05292 0.06703,0.169333 0,0.109361 -0.06703,0.165805 -0.0635,0.05644 -0.155222,0.05644 z m -0.800803,2.233079 V 45.02578 l 0.673804,-0.05292 v -1.361719 l -0.61736,-0.04586 v -0.218722 h 0.934859 v 1.626302 l 0.631471,0.05292 v 0.211666 z m 2.116657,0 V 45.02578 l 0.691443,-0.05292 v -2.15194 l -0.670276,-0.04586 v -0.218721 h 0.987775 v 2.416522 l 0.613832,0.05292 v 0.211666 z m 2.892767,0.03528 q -0.09172,0 -0.155222,-0.05644 -0.0635,-0.05644 -0.0635,-0.183444 0,-0.134055 0.0635,-0.186972 0.0635,-0.05292 0.155222,-0.05292 0.09172,0 0.155221,0.05292 0.0635,0.05292 0.0635,0.186972 0,0.127 -0.0635,0.183444 -0.0635,0.05644 -0.155221,0.05644 z m 2.250712,0 q -0.416277,0 -0.656165,-0.225778 -0.236361,-0.229305 -0.236361,-0.740831 0,-0.363361 0.116417,-0.582083 0.119944,-0.218721 0.328082,-0.313971 0.211667,-0.09878 0.479777,-0.09878 0.165805,0 0.29986,0.03528 0.137584,0.03175 0.257528,0.09525 l -0.09525,0.257527 q -0.112889,-0.05997 -0.218722,-0.08467 -0.105833,-0.02822 -0.229305,-0.02822 -0.324555,0 -0.469193,0.179917 -0.144639,0.176388 -0.144639,0.532693 0,0.377471 0.151694,0.539749 0.151694,0.162277 0.451555,0.162277 0.155222,0 0.292805,-0.03175 0.137583,-0.03528 0.239888,-0.08114 v 0.278693 q -0.105833,0.04939 -0.261055,0.07761 -0.155222,0.02822 -0.306916,0.02822 z m 1.986126,0 q -0.246944,0 -0.444499,-0.105834 -0.194027,-0.10936 -0.310444,-0.328082 -0.112888,-0.22225 -0.112888,-0.55386 0,-0.328083 0.10936,-0.543277 0.112889,-0.215194 0.306916,-0.321027 0.194028,-0.109361 0.440972,-0.109361 0.246944,0 0.444499,0.109361 0.197555,0.105833 0.310444,0.324555 0.116416,0.215194 0.116416,0.550332 0,0.328083 -0.112889,0.546805 -0.112888,0.215194 -0.306916,0.324554 -0.194027,0.105834 -0.440971,0.105834 z m -0.0035,-0.257528 q 0.275166,0 0.409222,-0.194027 0.134055,-0.197555 0.134055,-0.532693 0,-0.335138 -0.137583,-0.525638 -0.134055,-0.194027 -0.409221,-0.194027 -0.275167,0 -0.41275,0.194027 -0.134055,0.1905 -0.134055,0.525638 0,0.335138 0.137583,0.532693 0.137583,0.194027 0.412749,0.194027 z m 1.234715,0.22225 v -1.890885 h 0.218722 l 0.04586,0.208139 h 0.01764 q 0.07055,-0.141111 0.155222,-0.1905 0.08467,-0.05292 0.194027,-0.05292 0.144638,0 0.222249,0.07056 0.08114,0.06703 0.123472,0.201083 h 0.01058 q 0.05997,-0.130528 0.148166,-0.201083 0.09172,-0.07056 0.239888,-0.07056 0.218722,0 0.303389,0.169333 0.08819,0.165806 0.08819,0.52211 v 1.23472 h -0.282222 v -1.181803 q 0,-0.22225 -0.03175,-0.345722 -0.02822,-0.123472 -0.158749,-0.123472 -0.268111,0 -0.268111,0.705554 v 0.945443 H 72.39185 v -1.181803 q 0,-0.225777 -0.04233,-0.345722 -0.0388,-0.123472 -0.169333,-0.123472 -0.141111,0 -0.197555,0.1905 -0.05292,0.1905 -0.05292,0.515054 v 0.945443 z"
       id="text1"
       aria-label="xsalagarcia@gmail.com" />
  </g>
</svg>
